<mxfile host="app.diagrams.net" modified="2022-02-14T14:44:39.893Z" agent="5.0 (X11; Linux x86_64) AppleWebKit/537.36 (KHTML, like Gecko) Chrome/98.0.4758.80 Safari/537.36 Edg/98.0.1108.50" etag="nx0uU_PKQTFXqETPy5WP" version="16.5.2" type="github">
  <diagram id="kgpKYQtTHZ0yAKxKKP6v" name="Page-1">
    <mxGraphModel dx="820" dy="521" grid="1" gridSize="10" guides="1" tooltips="1" connect="1" arrows="1" fold="1" page="1" pageScale="1" pageWidth="850" pageHeight="1100" math="0" shadow="0">
      <root>
        <mxCell id="0" />
        <mxCell id="1" parent="0" />
        <mxCell id="bshTtH8_luoc5h6p88ZG-1" value="Cliente" style="shape=umlLifeline;perimeter=lifelinePerimeter;container=1;collapsible=0;recursiveResize=0;rounded=0;shadow=0;strokeWidth=1;sketch=1;fillColor=#f5f5f5;fontColor=#333333;strokeColor=#666666;" vertex="1" parent="1">
          <mxGeometry x="20" y="80" width="100" height="300" as="geometry" />
        </mxCell>
        <mxCell id="bshTtH8_luoc5h6p88ZG-2" value="" style="points=[];perimeter=orthogonalPerimeter;rounded=0;shadow=0;strokeWidth=1;sketch=1;fillColor=#f5f5f5;fontColor=#333333;strokeColor=#666666;" vertex="1" parent="bshTtH8_luoc5h6p88ZG-1">
          <mxGeometry x="45" y="70" width="10" height="190" as="geometry" />
        </mxCell>
        <mxCell id="bshTtH8_luoc5h6p88ZG-3" value="Sistema" style="shape=umlLifeline;perimeter=lifelinePerimeter;container=1;collapsible=0;recursiveResize=0;rounded=0;shadow=0;strokeWidth=1;sketch=1;fillColor=#f5f5f5;fontColor=#333333;strokeColor=#666666;" vertex="1" parent="1">
          <mxGeometry x="170" y="80" width="100" height="260" as="geometry" />
        </mxCell>
        <mxCell id="bshTtH8_luoc5h6p88ZG-4" value="" style="points=[];perimeter=orthogonalPerimeter;rounded=0;shadow=0;strokeWidth=1;sketch=1;fillColor=#f5f5f5;fontColor=#333333;strokeColor=#666666;" vertex="1" parent="bshTtH8_luoc5h6p88ZG-3">
          <mxGeometry x="45" y="80" width="10" height="170" as="geometry" />
        </mxCell>
        <mxCell id="bshTtH8_luoc5h6p88ZG-5" value="Reportar Stock" style="verticalAlign=bottom;endArrow=open;dashed=1;endSize=8;shadow=0;strokeWidth=1;sketch=1;fillColor=#f5f5f5;strokeColor=#666666;entryX=0.5;entryY=0.706;entryDx=0;entryDy=0;entryPerimeter=0;exitX=0;exitY=0.769;exitDx=0;exitDy=0;exitPerimeter=0;" edge="1" parent="1" source="bshTtH8_luoc5h6p88ZG-8" target="bshTtH8_luoc5h6p88ZG-15">
          <mxGeometry relative="1" as="geometry">
            <mxPoint x="240" y="440" as="targetPoint" />
            <mxPoint x="650" y="280" as="sourcePoint" />
            <Array as="points">
              <mxPoint x="620" y="280" />
            </Array>
          </mxGeometry>
        </mxCell>
        <mxCell id="bshTtH8_luoc5h6p88ZG-6" value="Realizar Pedido" style="verticalAlign=bottom;endArrow=block;entryX=0;entryY=0;shadow=0;strokeWidth=1;sketch=1;fillColor=#f5f5f5;strokeColor=#666666;" edge="1" parent="1" source="bshTtH8_luoc5h6p88ZG-2" target="bshTtH8_luoc5h6p88ZG-4">
          <mxGeometry relative="1" as="geometry">
            <mxPoint x="275" y="160" as="sourcePoint" />
          </mxGeometry>
        </mxCell>
        <mxCell id="bshTtH8_luoc5h6p88ZG-7" value="Bodega" style="shape=umlLifeline;perimeter=lifelinePerimeter;container=1;collapsible=0;recursiveResize=0;rounded=0;shadow=0;strokeWidth=1;sketch=1;fillColor=#f5f5f5;fontColor=#333333;strokeColor=#666666;" vertex="1" parent="1">
          <mxGeometry x="630" y="80" width="100" height="300" as="geometry" />
        </mxCell>
        <mxCell id="bshTtH8_luoc5h6p88ZG-8" value="" style="points=[];perimeter=orthogonalPerimeter;rounded=0;shadow=0;strokeWidth=1;sketch=1;fillColor=#f5f5f5;fontColor=#333333;strokeColor=#666666;" vertex="1" parent="bshTtH8_luoc5h6p88ZG-7">
          <mxGeometry x="45" y="80" width="10" height="160" as="geometry" />
        </mxCell>
        <mxCell id="bshTtH8_luoc5h6p88ZG-9" value="" style="endArrow=classic;html=1;rounded=0;sketch=1;fillColor=#f5f5f5;strokeColor=#666666;" edge="1" parent="bshTtH8_luoc5h6p88ZG-7">
          <mxGeometry width="50" height="50" relative="1" as="geometry">
            <mxPoint x="55" y="132.5" as="sourcePoint" />
            <mxPoint x="49.5" y="167.5" as="targetPoint" />
            <Array as="points">
              <mxPoint x="100" y="132.5" />
              <mxPoint x="100" y="167.5" />
            </Array>
          </mxGeometry>
        </mxCell>
        <mxCell id="bshTtH8_luoc5h6p88ZG-21" value="Verificar StockÂ " style="verticalAlign=bottom;endArrow=block;entryX=-0.1;entryY=0.25;shadow=0;strokeWidth=1;sketch=1;fillColor=#f5f5f5;strokeColor=#666666;entryDx=0;entryDy=0;entryPerimeter=0;" edge="1" parent="bshTtH8_luoc5h6p88ZG-7" target="bshTtH8_luoc5h6p88ZG-8">
          <mxGeometry relative="1" as="geometry">
            <mxPoint x="-110" y="120.00000000000011" as="sourcePoint" />
            <mxPoint x="30" y="120.00000000000011" as="targetPoint" />
          </mxGeometry>
        </mxCell>
        <mxCell id="bshTtH8_luoc5h6p88ZG-10" value="Detallar Requerimientos" style="verticalAlign=bottom;endArrow=block;entryX=0;entryY=0.306;shadow=0;strokeWidth=1;sketch=1;fillColor=#f5f5f5;strokeColor=#666666;entryDx=0;entryDy=0;entryPerimeter=0;" edge="1" parent="1" source="bshTtH8_luoc5h6p88ZG-3" target="bshTtH8_luoc5h6p88ZG-15">
          <mxGeometry relative="1" as="geometry">
            <mxPoint x="350" y="180.0000000000001" as="sourcePoint" />
            <mxPoint x="520" y="180.0000000000001" as="targetPoint" />
            <Array as="points">
              <mxPoint x="380" y="212" />
            </Array>
          </mxGeometry>
        </mxCell>
        <mxCell id="bshTtH8_luoc5h6p88ZG-11" value="Agregar&lt;br&gt;Productos" style="text;html=1;strokeColor=none;fillColor=default;align=center;verticalAlign=middle;whiteSpace=wrap;rounded=0;sketch=1;fontColor=#333333;" vertex="1" parent="1">
          <mxGeometry x="740" y="215" width="50" height="30" as="geometry" />
        </mxCell>
        <mxCell id="bshTtH8_luoc5h6p88ZG-12" value="Producto" style="shape=umlLifeline;perimeter=lifelinePerimeter;container=1;collapsible=0;recursiveResize=0;rounded=0;shadow=0;strokeWidth=1;sketch=1;fillColor=#f5f5f5;fontColor=#333333;strokeColor=#666666;" vertex="1" parent="1">
          <mxGeometry x="300" y="80" width="100" height="120" as="geometry" />
        </mxCell>
        <mxCell id="bshTtH8_luoc5h6p88ZG-13" value="" style="points=[];perimeter=orthogonalPerimeter;rounded=0;shadow=0;strokeWidth=1;sketch=1;fillColor=#f5f5f5;fontColor=#333333;strokeColor=#666666;" vertex="1" parent="bshTtH8_luoc5h6p88ZG-12">
          <mxGeometry x="45" y="80" width="10" height="30" as="geometry" />
        </mxCell>
        <mxCell id="bshTtH8_luoc5h6p88ZG-24" value="Verificar Disponibilidad" style="verticalAlign=bottom;endArrow=block;shadow=0;strokeWidth=1;sketch=1;fillColor=#f5f5f5;strokeColor=#666666;" edge="1" parent="bshTtH8_luoc5h6p88ZG-12">
          <mxGeometry relative="1" as="geometry">
            <mxPoint x="-70" y="95" as="sourcePoint" />
            <mxPoint x="40" y="95" as="targetPoint" />
          </mxGeometry>
        </mxCell>
        <mxCell id="bshTtH8_luoc5h6p88ZG-14" value="Administrador" style="shape=umlLifeline;perimeter=lifelinePerimeter;container=1;collapsible=0;recursiveResize=0;rounded=0;shadow=0;strokeWidth=1;sketch=1;fillColor=#f5f5f5;fontColor=#333333;strokeColor=#666666;" vertex="1" parent="1">
          <mxGeometry x="460" y="80" width="100" height="250" as="geometry" />
        </mxCell>
        <mxCell id="bshTtH8_luoc5h6p88ZG-15" value="" style="points=[];perimeter=orthogonalPerimeter;rounded=0;shadow=0;strokeWidth=1;sketch=1;fillColor=#f5f5f5;fontColor=#333333;strokeColor=#666666;" vertex="1" parent="bshTtH8_luoc5h6p88ZG-14">
          <mxGeometry x="45" y="80" width="10" height="170" as="geometry" />
        </mxCell>
        <mxCell id="bshTtH8_luoc5h6p88ZG-23" value="Requerimientos Detallados" style="verticalAlign=bottom;endArrow=open;dashed=1;endSize=8;shadow=0;strokeWidth=1;sketch=1;fillColor=#f5f5f5;strokeColor=#666666;entryX=0.5;entryY=0.706;entryDx=0;entryDy=0;entryPerimeter=0;" edge="1" parent="1" source="bshTtH8_luoc5h6p88ZG-14">
          <mxGeometry relative="1" as="geometry">
            <mxPoint x="230" y="280.02" as="targetPoint" />
            <mxPoint x="370" y="280" as="sourcePoint" />
            <Array as="points">
              <mxPoint x="340" y="280" />
            </Array>
          </mxGeometry>
        </mxCell>
      </root>
    </mxGraphModel>
  </diagram>
</mxfile>
